<?xml version="1.0" encoding="utf-8"?>
<!-- Generator: Adobe Illustrator 19.0.0, SVG Export Plug-In . SVG Version: 6.00 Build 0)  -->
<svg version="1.1" xmlns="http://www.w3.org/2000/svg" xmlns:xlink="http://www.w3.org/1999/xlink" x="0px" y="0px"
	 viewBox="0 0 640 1136" style="enable-background:new 0 0 640 1136;" xml:space="preserve">
<style type="text/css">
	.st0{display:none;fill:#FFFFFF;}
	.st1{fill:#EC2029;}
	.st2{fill:#B4242D;}
	.st3{fill:#342C2A;}
	.st4{fill:#4E4A4B;}
	.st5{fill:#707070;}
	.st6{fill:#4C4A4B;}
	.st7{display:none;}
</style>
<g id="Layer_1">
	<rect id="XMLID_1_" class="st0" width="640" height="1136"/>
	<g id="bendera_x5F_bawah">
		<path id="bawah_x5F_kiri" class="st1" d="M320,1043.5c-10.8-7.5-21-15.4-32.1-21.8c-35.7-20.4-74.8-26.9-115.5-27.4
			c-43.9-0.5-87.9-2.4-131.8-4.2c-13.2-0.5-26.3-2.8-40.7-4.5c0,5.4,0,9.6,0,13.8c0,42.4,0,84.8,0,127.2c0,4,0,7.7,0,11h320V1043.5z
			"/>
		<path id="bawah_x5F_kanan" class="st2" d="M640,999.5c0-4.2,0-8.5,0-13.8c-14.4,1.6-27.5,3.9-40.7,4.5
			c-43.9,1.8-87.8,3.7-131.8,4.2c-40.7,0.5-79.8,7-115.5,27.4c-11.1,6.3-21.2,14.3-32.1,21.8v94.2h320c0-3.3,0-7,0-11
			C640,1084.4,640,1042,640,999.5z"/>
	</g>
	<g id="Logo_x5F_Text">
		<g id="Schools">
			<path id="XMLID_49_" class="st3" d="M231,742.5v-3c0-2.1,1.7-3.4,3.8-3.4h15c0.9,0,2.2-1,2.2-1.9v-2.7c0-0.9-1.3-1.3-2.2-1.3
				h-11.1c-5.1,0-7.7-2.8-7.7-7.6v-9.9c0-5.3,2.5-7.4,7.4-7.4h17.8c2.1,0,3.8,1.1,3.8,3.2v3c0,2.1-1.7,3.8-3.8,3.8h-14.1
				c-0.9,0-1.1,0.7-1.1,1.6v2.7c0,0.9,0.2,1.7,1.1,1.7h11.4c4.9,0,6.4,2.4,6.4,7.3v9.8c0,5.4-1.8,7.9-7.1,7.9h-18.1
				C232.7,746,231,744.5,231,742.5z"/>
			<path id="XMLID_47_" class="st3" d="M272.9,746c-5.1,0-7.9-2.2-7.9-7.1v-17.4c0-5.1,2.8-7.5,7.8-7.5h12.4c2.1,0,3.8,1.6,3.8,3.7
				v2.1c0,2.1-1.7,4.2-3.8,4.2h-8.8c-0.9,0-1.4,0.2-1.4,1.2v9.8c0,1.2,0.3,2.1,1.4,2.1h8.9c2.1,0,3.7,1.4,3.7,3.4v2
				c0,2.1-1.6,3.5-3.7,3.5H272.9z"/>
			<path id="XMLID_45_" class="st3" d="M312,742.5v-17.3c0-0.9-0.4-1.2-1.3-1.2H302v18.5c0,2.1-1.3,3.5-3.3,3.5h-2
				c-2.1,0-4.6-1.5-4.6-3.5v-34.3c0-2.1,2.6-3.2,4.6-3.2h2c2.1,0,3.3,1.1,3.3,3.2v5.8h12.3c5,0,7.7,2.5,7.7,7.5v20.9
				c0,2.1-1.8,3.5-3.9,3.5h-2C314,746,312,744.5,312,742.5z"/>
			<path id="XMLID_42_" class="st3" d="M334.1,746c-5.1,0-8.1-2.2-8.1-7.1v-17.4c0-5.1,2.9-7.5,7.9-7.5h14.2c5,0,7.9,2.5,7.9,7.6
				v17.1c0,5-2.9,7.3-7.8,7.3H334.1z M346,725.2c0-0.9-0.6-1.2-1.5-1.2h-7c-0.9,0-1.5,0.2-1.5,1.2v9.8c0,1.2,0.4,2.1,1.5,2.1h7
				c0.9,0,1.5-1,1.5-2V725.2z"/>
			<path id="XMLID_39_" class="st3" d="M367.6,746c-5.1,0-7.6-2.2-7.6-7.1v-17.4c0-5.1,2.4-7.5,7.5-7.5h14.2c5,0,7.4,2.5,7.4,7.6
				v17.1c0,5-2.4,7.3-7.3,7.3H367.6z M380,725.2c0-0.9-1-1.2-1.9-1.2h-7c-0.9,0-1.1,0.2-1.1,1.2v9.8c0,1.2,0,2.1,1.1,2.1h7
				c0.9,0,1.9-1,1.9-2V725.2z"/>
			<path id="XMLID_37_" class="st3" d="M404,743.3c0,2.1-1.7,3.7-3.7,3.7h-2.5c-2.1,0-3.7-1.7-3.7-3.7v-34.5c0-2.1,1.7-3.7,3.7-3.7
				h2.5c2.1,0,3.7,1.7,3.7,3.7V743.3z"/>
			<path id="XMLID_35_" class="st3" d="M408,742.5v-1.5c0-2.1,1.8-3.9,3.9-3.9h14.4c0.6,0,1.7-0.1,1.7-0.8v-1.9
				c0-0.6-1.1-1.3-1.7-1.3h-12c-2.5,0-4.1-0.4-5-1.5c-0.9-1.1-1.3-2.7-1.3-5.1v-4.9c0-5,2.3-7.5,7.2-7.5h17c2.1,0,3.7,1.6,3.7,3.7
				v1.5c0,2.1-1.7,3.8-3.7,3.8H418c-0.6,0-1,0.2-1,0.9v1.9c0,0.6,0.4,1.2,1,1.2h12.1c4.5,0,5.9,2,5.9,6.6v5c0,5.1-1.4,7.4-5.9,7.4
				h-18.2C409.8,746,408,744.5,408,742.5z"/>
		</g>
		<g id="Telkom">
			<path id="XMLID_32_" class="st3" d="M244,682.5V653h-6.5c-2.1,0-3.5-1.4-3.5-3.4V646c0-2.1,1.5-3,3.5-3h23.4c2.1,0,4.1,0.9,4.1,3
				v3.6c0,2.1-2.1,3.4-4.1,3.4H254v29.5c0,2.1-1.4,3.5-3.4,3.5h-2.7C245.8,686,244,684.5,244,682.5z"/>
			<path id="XMLID_29_" class="st3" d="M274.5,686c-5.5,0-8.5-2.5-8.5-7.8v-18c0-5.3,2.8-8.2,8.2-8.2H290c5.1,0,8,2.8,8,8v5
				c0,5.2-2.9,8-8,8h-11.8c-0.7,0-1.2-0.3-2.2-0.6v2.5c0,1.2,1,1,2.2,1h14.3c2,0,3.5,2.4,3.5,4.4v2.1c0,2-1.5,3.5-3.5,3.5H274.5z
				 M287,662.7c0-0.8,0-1.7-0.8-1.7h-8.7c-0.8,0-1.6,1-1.6,1.7v2.4c0,0.8,0.8,1.9,1.6,1.9h8.7c0.8,0,0.8-1.1,0.8-1.9V662.7z"/>
			<path id="XMLID_27_" class="st3" d="M313,683.3c0,2.1-1.7,3.7-3.7,3.7h-3.5c-2.1,0-3.7-1.7-3.7-3.7v-36.5c0-2.1,1.7-3.7,3.7-3.7
				h3.5c2.1,0,3.7,1.7,3.7,3.7V683.3z"/>
			<path id="XMLID_25_" class="st3" d="M337.2,686l-9.2-16v12.5c0,2.1-1.6,3.5-3.6,3.5h-2.8c-2.1,0-3.6-1.5-3.6-3.5V646
				c0-2.1,1.5-3,3.6-3h2.8c2.1,0,3.6,0.9,3.6,3v19.2l8.5-13.2h11.1l-9.5,14.4l11.6,19.6H337.2z"/>
			<path id="XMLID_8_" class="st3" d="M359.3,686c-5.5,0-8.3-2.4-8.3-7.5v-18.3c0-5.3,2.7-8.2,8.1-8.2h15.3c5.4,0,7.6,2.9,7.6,8.3
				v18c0,5.3-2.2,7.7-7.5,7.7H359.3z M372,664.1c0-1.2-0.3-2.1-1.5-2.1H363c-1.2,0-2,0.9-2,2.1v10.3c0,1.2,0.8,1.7,2,1.7h7.5
				c1.2,0,1.5-0.4,1.5-1.5V664.1z"/>
			<path id="XMLID_6_" class="st3" d="M427.8,686c-2.1,0-3.8-1.5-3.8-3.5v-18.4c0-1.2-0.5-2.1-1.7-2.1H416v20.5c0,2.1-1.9,3.5-4,3.5
				h-2.7c-2.1,0-4.4-1.5-4.4-3.5V662h-5.8c-1.2,0-2.2,0.9-2.2,2.1v18.4c0,2.1-1.2,3.5-3.3,3.5H391c-2.1,0-3-1.5-3-3.5v-22.2
				c0-5.3,2-8.2,7.4-8.2H426c5.4,0,8,2.9,8,8.3v22.2c0,2.1-1.6,3.5-3.7,3.5H427.8z"/>
		</g>
	</g>
	<g id="Logo_x5F_TS">
		<g id="bendera_x5F_atas">
			<path id="atas_x5F_kiri" class="st1" d="M306.4,404.4c-12.8-7.3-26.8-9.6-41.4-9.8c-15.7-0.2-31.5-0.9-47.2-1.5
				c-4.7-0.2-9.4-1-14.6-1.6c0,1.9,0,3.4,0,5c0,15.2,0,30.4,0,45.6c0,15,0,15.1,15,15.8c16,0.7,32.1,1.2,48.1,1.5
				c13.5,0.2,25.9,4,36.8,11.7c5.1,3.6,9.7,8,14.7,12.3v-71.1C314,409.5,310.3,406.7,306.4,404.4z"/>
			<path id="atas_x5F_kanan" class="st2" d="M329.3,404.4c12.8-7.3,26.8-9.6,41.4-9.8c15.7-0.2,31.5-0.9,47.2-1.5
				c4.7-0.2,9.4-1,14.6-1.6c0,1.9,0,3.4,0,5c0,15.2,0,30.4,0,45.6c0,15,0,15.1-15,15.8c-16,0.7-32.1,1.2-48.1,1.5
				c-13.5,0.2-25.9,4-36.8,11.7c-5.1,3.6-9.7,8-14.7,12.3v-71.1C321.7,409.5,325.4,406.7,329.3,404.4z"/>
		</g>
		<g id="S">
			<path id="XMLID_58_" class="st4" d="M434.4,523.1c0.6-14.9-6.9-29-22.2-36c-21.9-10-43-7.5-63.4,4.1c-11.9,6.8-12.4,11-4,21.8
				c8.8,11.4,21.2,15.8,35,18.3c9.2,1.7,18,5.2,26.9,8.2c2.4,0.8,4.3,2.8,7.3,4.8c0,0,2-0.6,10.4-8.3
				C432.5,528.3,434.4,523.1,434.4,523.1z"/>
			<path id="XMLID_55_" class="st5" d="M424.2,536c-8.3,7.7-10.4,8.3-10.4,8.3c-30,17.8-55,7.3-79.8-10.8c0,2,0,3.3,0,4.5
				c0,20.4,0.1,40.8-0.1,61.2c0,3.4,1.2,5,4.1,6.4c12.8,6,26.2,10.3,40.4,11.4c18.7,1.4,36-2.7,51.4-13.9c3-2.2,4.4-4.7,4.4-8.7
				c-0.2-23.8-0.8-47.6,0.2-71.3C434.4,523.1,432.5,528.3,424.2,536z"/>
		</g>
		<path id="T" class="st6" d="M244.4,482.7c25.7-2.4,53.9,7.5,63.3,31.4c1.3,3.3,2.1,7,2.1,10.6c0.2,27.3,0.1,54.6,0.1,81.8
			c0,7.5,0,6.1-6,6.1c-16.6,0-33.2-0.1-49.8,0.1c-3.8,0-5-1-5-5c0.1-36.3,0.1-72.6,0.1-108.8C249.2,493.3,249,487.8,244.4,482.7z"/>
	</g>
</g>
<g id="Layer_2" class="st7">
</g>
</svg>
